#!OML:ASF H:\Terrain\Walking\May29\JustinRory\Justin.ASF
:FULLY-SPECIFIED
:DEGREES
901
root 16.7612 9.91798 -6.65915 -108.896 -87.513 87.871
lowerback 43.4592 4.17989 2.18868
upperback 17.8566 3.09513 1.34408
thorax -0.379878 0.389251 -0.765198
lowerneck -13.0372 14.0092 1.8386
upperneck 21.2773 20.6503 -7.88609
head 9.96167 8.86874 -0.31536
rclavicle 1.03368e-014 -2.46493e-014
rhumerus 21.2218 23.6544 -64.7336
rradius 75.6261
rwrist -3.00883
rhand 19.5611 8.25496
rfingers 7.12502
rthumb 44.126 -15.5808
lclavicle 1.03368e-014 -2.46493e-014
lhumerus 32.8542 -29.6223 78.856
lradius 57.1913
lwrist -24.3015
lhand 23.5005 40.5086
lfingers 7.12502
lthumb 47.781 62.823
rfemur -68.4995 -11.2231 15.0713
rtibia 73.3983
rfoot 19.0832 -0.682634
rtoes 17.8075
lfemur -68.3601 9.30047 -14.8408
ltibia 73.932
lfoot 19.1892 -6.92409
ltoes 3.67228
902
root 16.7493 9.90826 -6.65676 -106.549 -87.2946 85.5714
lowerback 42.8768 4.56992 1.12756
upperback 18.2361 3.14241 2.02248
thorax 0.0942294 0.281795 0.479072
lowerneck -12.7139 14.1199 1.59186
upperneck 20.582 20.9944 -8.78581
head 9.7636 8.9731 -0.559997
rclavicle 1.11319e-014 -5.56597e-015
rhumerus 22.2267 24.1896 -63.2371
rradius 75.5741
rwrist -3.25793
rhand 19.7194 8.39444
rfingers 7.12502
rthumb 44.2736 -15.3856
lclavicle 1.11319e-014 -5.56597e-015
lhumerus 33.1794 -28.6957 79.4519
lradius 57.0918
lwrist -24.5646
lhand 27.6943 40.0843
lfingers 7.12502
lthumb 51.6226 60.4114
rfemur -68.6406 -11.4029 14.8722
rtibia 73.4708
rfoot 19.108 -0.496402
rtoes 17.512
lfemur -68.4803 9.56752 -15.2747
ltibia 73.8429
lfoot 19.6723 -6.6623
ltoes 5.84314
903
root 16.7614 9.91967 -6.65941 -103.136 -86.6682 82.2356
lowerback 42.8728 4.74705 0.560689
upperback 18.2119 3.15434 1.97356
thorax 0.0380606 0.258555 0.709121
lowerneck -12.7133 14.0522 1.51229
upperneck 20.5192 20.9082 -8.77621
head 9.72629 8.93333 -0.561472
rclavicle 3.02153e-014 -3.57812e-014
rhumerus 22.3246 24.0266 -62.9075
rradius 75.5082
rwrist -3.3024
rhand 19.9943 8.52625
rfingers 7.12502
rthumb 44.5298 -15.1562
lclavicle 3.02153e-014 -3.57812e-014
lhumerus 33.5519 -28.7012 79.1954
lradius 57.0418
lwrist -24.3256
lhand 23.0987 40.8088
lfingers 7.12502
lthumb 47.4101 63.2922
rfemur -68.7201 -11.5137 14.1723
rtibia 73.4169
rfoot 19.2286 -0.669562
rtoes 18.5141
lfemur -68.2594 9.00915 -15.772
ltibia 73.6219
lfoot 19.5028 -6.47214
ltoes 3.54003
904
root 16.7737 9.93348 -6.66339 -101.8 -86.2038 80.901
lowerback 43.0805 4.81044 0.540139
upperback 18.1208 3.2293 1.7713
thorax -0.107474 0.315995 0.476308
lowerneck -13.199 13.8194 1.24417
upperneck 21.0467 20.5912 -8.26108
head 9.89099 8.76583 -0.360242
rclavicle -3.97569e-015 1.11319e-014
rhumerus 21.9741 23.4847 -63.1889
rradius 75.4784
rwrist -3.08793
rhand 20.2459 8.77187
rfingers 7.12502
rthumb 44.7641 -14.82
lclavicle -3.97569e-015 1.11319e-014
lhumerus 33.849 -29.0942 78.9288
lradius 57.0411
lwrist -24.3449
lhand 23.0117 40.9929
lfingers 7.12502
lthumb 47.3296 63.5125
rfemur -68.6852 -11.5165 13.5817
rtibia 73.3709
rfoot 19.2704 -1.11791
rtoes 20.6077
lfemur -68.1861 8.66844 -15.7935
ltibia 73.2451
lfoot 20.2723 -4.11367
ltoes 14.2765
905
root 16.7711 9.9314 -6.66045 -103.268 -86.517 82.2852
lowerback 43.1648 4.72448 1.00323
upperback 18.1295 3.29716 1.83844
thorax -0.0971696 0.373022 0.289071
lowerneck -13.3297 13.6978 1.12269
upperneck 21.1863 20.4458 -8.16981
head 9.93294 8.68411 -0.323375
rclavicle 1.66979e-014 -7.95139e-016
rhumerus 21.812 23.3347 -63.2089
rradius 75.4745
rwrist -2.98136
rhand 19.997 8.75839
rfingers 7.12502
rthumb 44.5323 -14.9231
lclavicle 1.66979e-014 -7.95139e-016
lhumerus 33.9381 -29.2794 78.8783
lradius 57.0297
lwrist -24.4304
lhand 23.6157 40.7514
lfingers 7.12502
lthumb 47.8873 63.0167
rfemur -68.5378 -11.4889 13.9225
rtibia 73.3339
rfoot 19.2587 -1.06183
rtoes 20.4325
lfemur -68.2098 8.98283 -15.6569
ltibia 73.3313
lfoot 20.1171 -4.43217
ltoes 14.2012
906
root 16.7699 9.9254 -6.65622 -104.395 -86.7384 83.3644
lowerback 43.7014 4.27972 2.08206
upperback 17.74 3.19685 1.18748
thorax -0.568937 0.453397 -0.916569
lowerneck -12.7695 13.6384 1.81349
upperneck 20.9604 20.1025 -7.8899
head 9.767 8.64514 -0.423819
rclavicle 1.31198e-014 1.19271e-014
rhumerus 20.8035 22.9242 -64.5024
rradius 75.4727
rwrist -2.61923
rhand 19.6399 8.56751
rfingers 7.12502
rthumb 44.1995 -15.2406
lclavicle 1.31198e-014 1.19271e-014
lhumerus 33.7138 -30.1863 77.9895
lradius 57.0889
lwrist -24.3041
lhand 22.8869 40.9216
lfingers 7.12502
lthumb 47.2143 63.4928
rfemur -68.4829 -11.5592 14.2746
rtibia 73.3001
rfoot 19.3028 -0.641029
rtoes 18.8634
lfemur -68.2544 9.15016 -15.5134
ltibia 73.3918
lfoot 20.1092 -4.50618
ltoes 15.0805
907
root 16.7701 9.92101 -6.65637 -103.553 -86.4924 82.5711
lowerback 43.61 4.34488 1.82386
upperback 17.749 3.17829 1.15685
thorax -0.549743 0.432842 -0.811208
lowerneck -12.5914 13.6509 1.95211
upperneck 20.7954 20.1049 -8.03612
head 9.70831 8.65827 -0.505498
rclavicle 8.34896e-015 -4.21423e-014
rhumerus 20.81 22.9609 -64.5871
rradius 75.4565
rwrist -2.57222
rhand 19.9575 8.42083
rfingers 7.12502
rthumb 44.4954 -15.2748
lclavicle 8.34896e-015 -4.21423e-014
lhumerus 33.7288 -30.2478 77.8898
lradius 57.0883
lwrist -24.5207
lhand 22.3493 41.3775
lfingers 7.12502
lthumb 46.717 64.1674
rfemur -68.6118 -11.6376 14.0304
rtibia 73.3313
rfoot 19.3345 -0.575645
rtoes 19.3931
lfemur -68.3259 9.13691 -15.7901
ltibia 73.4822
lfoot 20.1537 -4.97863
ltoes 13.0706
908
root 16.7725 9.91752 -6.65814 -105.085 -86.7975 84.0171
lowerback 43.6094 4.24935 2.22012
upperback 17.808 3.20238 1.16544
thorax -0.458874 0.46601 -1.00946
lowerneck -12.6297 13.5945 1.99405
upperneck 20.8254 20.0075 -7.97639
head 9.71747 8.61912 -0.502623
rclavicle -4.77083e-015 2.06736e-014
rhumerus 20.8351 22.8159 -64.6521
rradius 75.4739
rwrist -2.65762
rhand 20.1876 8.47924
rfingers 7.12502
rthumb 44.7098 -15.1337
lclavicle -4.77083e-015 2.06736e-014
lhumerus 33.8696 -30.4395 77.6922
lradius 57.1295
lwrist -24.659
lhand 22.5243 41.7319
lfingers 7.12502
lthumb 46.879 64.4512
rfemur -68.4811 -11.5527 14.2978
rtibia 73.3527
rfoot 19.2305 -0.860951
rtoes 20.8444
lfemur -68.2937 9.22102 -15.4365
ltibia 73.5478
lfoot 20.1988 -5.47819
ltoes 11.2103
909
root 16.7694 9.91325 -6.66216 -105.423 -86.8581 84.392
lowerback 43.4091 4.2878 2.09553
upperback 17.8782 3.19884 1.26429
thorax -0.341746 0.449599 -0.837971
lowerneck -12.5689 13.5587 1.98536
upperneck 20.749 19.9763 -8.08874
head 9.69045 8.59851 -0.548131
rclavicle -2.42517e-014 3.89618e-014
rhumerus 21.0141 22.9173 -64.4907
rradius 75.4766
rwrist -2.63679
rhand 20.223 8.65992
rfingers 7.12502
rthumb 44.7427 -14.9403
lclavicle -2.42517e-014 3.89618e-014
lhumerus 33.9094 -30.4143 77.5879
lradius 57.1075
lwrist -24.8987
lhand 22.6627 41.39
lfingers 7.12502
lthumb 47.007 64.0531
rfemur -68.5343 -11.5228 14.3976
rtibia 73.3858
rfoot 19.1647 -1.26008
rtoes 21.719
lfemur -68.3753 9.2608 -15.3605
ltibia 73.5723
lfoot 19.9997 -5.54009
ltoes 10.1007
910
root 16.7631 9.90915 -6.66565 -103.767 -86.4775 82.868
lowerback 43.1024 4.41947 1.51985
upperback 17.9424 3.14096 1.25743
thorax -0.225387 0.388776 -0.530497
lowerneck -12.5467 13.5607 2.08385
upperneck 20.7316 19.997 -8.25953
head 9.71269 8.59762 -0.613909
rclavicle 5.56597e-015 -3.65764e-014
rhumerus 21.2835 23.0818 -64.3809
rradius 75.4027
rwrist -2.57577
rhand 20.4617 8.59899
rfingers 7.12502
rthumb 44.9649 -14.9144
lclavicle 5.56597e-015 -3.65764e-014
lhumerus 33.8748 -30.2981 77.472
lradius 57.0097
lwrist -25.4554
lhand 23.1121 40.3966
lfingers 7.12502
lthumb 47.4224 62.8744
rfemur -68.7809 -11.5913 14.0453
rtibia 73.4541
rfoot 19.1845 -1.42287
rtoes 21.9534
lfemur -68.5072 9.21905 -15.7872
ltibia 73.5727
lfoot 19.684 -5.54097
ltoes 8.88618
911
root 16.7721 9.91368 -6.66153 -104.628 -86.7012 83.588
lowerback 43.3262 4.27656 1.97064
upperback 17.8863 3.13641 1.18762
thorax -0.315793 0.418308 -0.833129
lowerneck -12.5979 13.4561 2.1136
upperneck 20.8938 19.8247 -8.10409
head 9.75374 8.52338 -0.585851
rclavicle -1.59028e-015 4.6118e-014
rhumerus 20.963 23.0285 -64.6491
rradius 75.4075
rwrist -2.48985
rhand 20.164 8.92147
rfingers 7.12502
rthumb 44.6878 -14.7
lclavicle -1.59028e-015 4.6118e-014
lhumerus 33.8537 -30.4935 77.3102
lradius 56.9391
lwrist -26.156
lhand 23.1738 40.0406
lfingers 7.12502
lthumb 47.4794 62.4927
rfemur -68.5833 -11.5397 14.1672
rtibia 73.4897
rfoot 18.9699 -1.57419
rtoes 22.9489
lfemur -68.3409 9.22166 -15.5403
ltibia 73.5552
lfoot 19.5676 -5.59018
ltoes 9.23695
912
root 16.7754 9.9146 -6.6633 -105.302 -86.7573 84.1837
lowerback 43.5109 4.22006 2.22132
upperback 17.8101 3.16768 1.09187
thorax -0.427719 0.456818 -1.07435
lowerneck -12.5582 13.2791 1.86696
upperneck 20.8762 19.5462 -7.7839
head 9.66044 8.41376 -0.496293
rclavicle -2.74323e-014 1.35174e-014
rhumerus 20.5517 22.9093 -64.9369
rradius 75.4781
rwrist -2.42262
rhand 19.6331 9.54142
rfingers 7.12502
rthumb 44.1932 -14.269
lclavicle -2.74323e-014 1.35174e-014
lhumerus 33.8986 -30.8263 77.0357
lradius 56.9523
lwrist -26.766
lhand 22.125 40.8262
lfingers 7.12502
lthumb 46.5093 63.7057
rfemur -68.5102 -11.4643 14.1525
rtibia 73.548
rfoot 18.7886 -1.73318
rtoes 23.8016
lfemur -68.264 9.37716 -15.5506
ltibia 73.543
lfoot 19.564 -5.89277
ltoes 8.77132
913
root 16.7637 9.90563 -6.6649 -102.84 -86.3573 82.0113
lowerback 43.1486 4.27714 1.84958
upperback 17.791 3.11611 0.970457
thorax -0.372042 0.430871 -0.992778
lowerneck -12.4062 13.1105 1.54433
upperneck 20.6325 19.3007 -7.5921
head 9.47818 8.31836 -0.446219
rclavicle -3.97569e-015 2.70347e-014
rhumerus 20.6136 22.8864 -64.8276
rradius 75.4858
rwrist -2.55335
rhand 19.356 9.8827
rfingers 7.12502
rthumb 43.9347 -14.0245
lclavicle -3.97569e-015 2.70347e-014
lhumerus 33.954 -30.9746 76.7672
lradius 57.0092
lwrist -27.2551
lhand 21.2448 41.4486
lfingers 7.12502
lthumb 45.6929 64.67
rfemur -68.9786 -11.6362 13.76
rtibia 73.6226
rfoot 19.0805 -1.53061
rtoes 23.8295
lfemur -68.6405 9.38707 -16.1273
ltibia 73.5621
lfoot 19.6914 -6.01971
ltoes 8.75248
